<?xml version="1.0" encoding="utf-8"?>
<!-- Generator: Adobe Illustrator 29.8.2, SVG Export Plug-In . SVG Version: 9.03 Build 0)  -->
<svg version="1.1" id="Calque_1" xmlns="http://www.w3.org/2000/svg" xmlns:xlink="http://www.w3.org/1999/xlink" x="0px" y="0px"
	 viewBox="0 0 160 160" style="enable-background:new 0 0 160 160;" xml:space="preserve">
<style type="text/css">
	.st0{clip-path:url(#SVGID_00000147934445124292096160000006802166880301481129_);fill:#101E7D;}
	.st1{clip-path:url(#SVGID_00000147934445124292096160000006802166880301481129_);}
	.st2{fill:#E4E4E4;}
	.st3{clip-path:url(#SVGID_00000016052669391666574790000016090775317784211350_);}
	.st4{fill:none;stroke:#E4E4E4;stroke-width:6;stroke-miterlimit:10;}
</style>
<g>
	<defs>
		<circle id="SVGID_1_" cx="80.01" cy="80" r="80"/>
	</defs>
	<clipPath id="SVGID_00000182527153406601999080000010940336895705115544_">
		<use xlink:href="#SVGID_1_"  style="overflow:visible;"/>
	</clipPath>
	
		<circle style="clip-path:url(#SVGID_00000182527153406601999080000010940336895705115544_);fill:#101E7D;" cx="80.01" cy="80" r="80"/>
	<g style="clip-path:url(#SVGID_00000182527153406601999080000010940336895705115544_);">
		<path class="st2" d="M131.41,71.07c1.11-1.69,1.91-1.15,3.14-2.22c0.82-0.71,1.5-2.24,1.16-3.34c-0.23-0.77-2.07-1.99-1.84-3.02
			c0.18-0.8,2.16-2.23,2.98-2.33c0.06-0.96-0.9-0.84-1.63-0.81c-0.03-0.94,0.63-1.92,0.57-2.85c-0.01-0.17-0.51-1.69-0.58-1.74
			c-0.73-0.59-1.73,1.92-2.35,2.43c-0.44,0.36-2.65,1.45-3.17,1.36c-0.65-0.11-0.04-2.4,0.13-2.8c0.13-0.28,0.75-0.05,0.53-0.74
			c-1.64-0.45-2.81-1.49-4.61-0.82c-0.47-0.4,1.04-1.18,1.68-1.03c0.27,0.06,1.31,1.11,1.3,0.09c-0.49-0.83-2.86-0.85-2.97-0.96
			c-0.13-0.12-0.54-3.01-0.82-3.51c0.36-0.34,1.72,1.26,0.67-1.08c0.5,0.32,1.22,0.3,1.82,0.35c0.37,0.03,0.86,0.52,0.76-0.22
			c-0.97-0.61-2.39,0.1-2.43-1.38c0-0.08,1.02-0.05-0.01-1.2c-0.09,0.32,0.16,0.84-0.65,0.52c-0.37-0.15-0.72-1.03-0.97-1.41
			c-0.16-0.25-0.53-0.17-0.54-0.19c-0.35-0.74-0.7-1.42-1.08-2.17c-0.06-0.12,0.09-0.59-0.01-0.88c-0.09-0.29-0.75-0.04-0.4-1.01
			c-1.21,1.43-2.97,0.56-4.75,0.54c0.21-0.97-0.79-1.91-1.49-2.44c-0.52-0.39-0.77-0.49-0.68,0.27c-0.77-0.77-1.18-0.57-1.36-1.9
			c-0.32-2.42-0.94-2.72-1.3-4.26c-0.21-0.91,0.16-3.14-1.28-3.35c-0.55-0.08-0.16,0.55-0.94,0.56c-0.03-0.16,0.05-0.49,0-0.54
			c-0.06-0.06-0.38,0.04-0.54,0c-0.63-0.14-0.62,0.15-1.08-0.54c-0.04-0.06,0.09-0.36-0.04-0.49c-0.23-0.22-1.22-0.2-1.58-0.33
			c-1.49-0.51-3.44-1.8-4.63-2.83c-0.72-0.62-2.65-2.01-3.64-2.34c-1.05-0.36-0.81,0.04-2.03-0.79c-0.82-0.55-2.58-2.3-3.27-2.57
			c-0.36-0.14-0.72,0.11-1.07,0c-1.22-0.36-2.35-1.14-3.8-0.55c3.01,0.64,5.48,1.93,8.14,3.39l0.41,1.08l-4.35-1.61
			c-3.39-0.26-6.98-1.46-9.88-3.27c-0.43-0.27-1.19-1.3-1.59-1.04c-0.05,0.03,0,0.44-0.22,0.49c-0.51,0.12-1.35-0.27-1.72,0.27
			c-0.18-0.01-0.36,0.01-0.54,0c-0.04-0.41-0.78-0.41-0.81,0c-1.1-0.05-5.53-0.19-6.23,0l-0.81,0.27c-0.27,0-0.54,0-0.81,0
			c0.15-0.85-0.71-0.81-0.54,0c-0.36,0.01-0.72-0.01-1.08,0c-0.59,0.01-1.26,0.27-1.36,0.27c-0.45,0-0.91,0.02-1.36,0
			c-1.27-0.06-4.54-1.15-5.27-1.1c-0.16,0.01-0.14,0.55-0.32,0.57c-0.36,0.05-0.87-0.32-1.33-0.29c-1.42,0.08-2.95,0.5-4.47,0.28
			c0.42,0.76,1.81,0.65,2.44,0.81c0.78,0.2,1.28,0.36,2.17,0.54c0.15,0.71-0.49,0.49-0.93,0.83c-0.13,0.1-0.12,0.46-0.18,0.51
			c-0.27,0.21-0.77-0.48-1.18-0.5c-1.25-0.07-2.58,0.67-3.41,1.6c-0.54-0.12-0.71,0.12-1.08,0.27c-0.91,0.37-0.56,0.59-1.07,0.96
			c-1.38,1-2.89,1.67-4.25,2.52c-1.5,0.94-5.16,2.94-6.26,3.93c-0.15,0.13-1.26,2.52-1.16,2.62c0.85,0.31,1.93-1.27,2.34-1.33
			c0.31-0.05,0.56,0.39,0.82,0.44c0.33,0.06,1.05-0.32,1.17-0.19c0.71,0.72-2.45,2.29-2.44,2.98c-0.28,0.02-1.55,0.05-1.63,0
			c-1.52,0.24,1.03,0.32,0.41,1.09c-0.68,0.85-2.22,0.99-3.11,1.5c-1.65,0.95-2.8,2.84-3.94,3.93c-0.34,0.32-1.4,0.18-0.95,0.8
			c0.05,0.07,0.94-0.05,0.54,1.36c0.09,0.11,2.69-0.97,2.44,0.27c-1.38-0.36-1.69,1.09-0.28,0.68c-0.29,1.53-1.17,0.91-2.15,1.37
			c-1.22,0.57-1.05,2.66-1.44,3.98c-0.29,1-0.89,2.11-1.26,3.08c-0.2,0.54,0.75,0.23,0.52,0.78c-0.03,0.07-0.77,1.01-0.9,1.14
			c-0.12,0.13-0.42,0.05-0.45,0.08c-0.53,0.51-1.05,1.13-1.63,1.62c0.74-0.04,1.47-0.32,2.17-0.54c-0.04,0.98,0.21,1.77,0.27,2.71
			c-1.33,1.15-0.76,2.75-0.81,4.07c0,0.04-0.23,0.72-0.27,0.81c1.25,0.04,0.79,1.53,0.82,2c0.01,0.18,0.46,0.14,0.52,0.37
			c0.09,0.34,0.57,2.24,0.57,2.36c0,0.12-0.41,0.04-0.57,0.56c-0.38,1.24-0.08,3.41-0.26,4.75c0.84,0.18,0.42-0.41,0.6-0.88
			c0.66-1.79,0.97,0.84,1.11,1.21c0.6,1.6,0.57,2.43,1.02,3.86c0.24,0.77,1.34,2.06,1.34,2.72l-0.9,0.14
			c-1.66-1.31-2.07-3.9-3.21-5.52c-0.32-0.45-0.78-0.51-0.78-0.04v3.93c-0.65,0.22-1.87-1.18-2.03-1.65
			c-0.27-0.78,0.13-1.15,0.13-1.88c-1.73,0.53-1.04,2.86-0.01,3.86c1.47,1.42,1.18,0.86,2.46,2.78c0.29,0.43,1.29,1.31,1.32,1.4
			c0.07,0.22,0.32,4.1,0.32,4.57c0,1.25-0.54,2.6-0.3,3.93c1.23,0.16-0.1-2.12,1.08-2.44c-0.46,1.14,1.03,1.55,1.09,1.81
			c0.1,0.44-0.16,1.47,0.03,1.68c0.51,0.59,3.61,0.01,1.78,2.38l-2.35,1.3c0.36,0.92,4.2,1.1,4.88,0.14
			c-0.3-1.94-0.57-3.56-1.36-5.42c0.03,0,0.11-0.35,0.23-0.25c0.08,0.07,0.04,0.45,0.52,0.71c0.97,0.52,1.43,0.06,1.87,1.38
			c0.56,1.68,0.09,3.55,1.89,4.62c0.48,0.28,1.21,0.34,1.57,0.6c0.56,0.4,0.16,1.22,0.97,1.06c0.01,0.18-0.01,0.36,0,0.54
			c-0.98-0.28-0.48,1.25,0.27,1.08c0.04,0.58,0.23,0.98,0.27,1.36c0,0.04-0.26,0.23-0.26,0.43c0,0.86,0.95,0.52,1.44,0.71
			c0.47,0.18,0.35,1.09,1.12,0.76c0.61-0.26,0.43-1.94,0.41-2.59c-0.02-0.52,0.28-1.09-0.54-0.94c-0.01-0.54,0.04-1.09,0-1.63
			c0.84-1.84,0.99-3.93,0.01-5.69l0.54-0.01l0-0.26c-1.06,0.2,0-1.27-1.08-1.09c-0.02-0.18,0.02-0.37,0-0.54
			c-0.48-3.87,0.09-4.95,0.2-8.55c0.05-1.71-0.51-3.39-0.45-5.11l-1.1-0.44c-0.11,0.13,0.27,1.28-0.55,0.68
			c-0.24-0.96,0.74-1.46,0.89-1.82c0.76-1.84,2.01-6.82,1.84-8.75c-0.08-0.94-0.95-2.07-1.15-2.67c-0.39-1.2-0.71-2.7-0.77-3.97
			l0.96,2.71l0.66,0.54l-0.27-2.71l0.81,0.27c-0.01-1.14,0.17-3.07,0.55-4.13c0.11-0.31,0.58-0.26,0.75-0.66
			c0.15-0.35,0.24-1.91,0.33-1.99c2.91,0.62,1.58,0.78,1.37,2.31c-0.22,1.6-0.54,3.11-0.79,4.67c-0.07,0.46,1.08,2.87,1.45,3.05
			l0.67-1.08c-0.02,0.96,0.05,2,0.54,2.85c0.27,0.22,1.28-1.01,1.62-0.68c0.07,0.07,0.11,1.42,0.99,1.58
			c1.02,0.19,1.08-0.99,1.34-1.56c0.8-1.74,0.67-3.76,1.32-5.44c0.42-1.09,1.53-0.88,1.35-2.44l0.68,0.27l0.01-0.82
			c1.62,1.12,2.28-1.8,3.24-2.78c0.63-0.65,2.29-0.43,1.9,0.47c-0.12,0.27-2.23,1.34-2.73,2.17c-0.15,0.24-0.58,1.98-0.93,2.56
			c-0.27,0.45-0.89,0.66-0.94,1.24c-0.07,0.76,0.55,0.16,0.84,0.57c0.4,0.57-0.04,2.32,0.96,2.5c1.33,0.24,0.77-1.22,0.92-1.93
			c0.04-0.2,0.44-0.21,0.51-0.4c0.61-1.71,0.42-3.49,1.52-4.94c0.56-0.12,1.19,0.97,1.29,1.01c0.35,0.15,0.95,0.02,1.01,0.08
			c0.11,0.1-0.1,1.26,0,1.36c0.09,0.09,1.73-0.12,2.43,0.42c0.65,0.5,0.41,1.59,0.81,1.89c0.12,0.09,0.54-0.13,0.81-0.01
			c0.39,0.18,0.51,0.82,1.1,0.67c-0.46-1.02,0.51-1.43,0.54-1.54c0.08-0.32-0.07-1.11,0.01-1.17c0.1-0.08,0.62,0.09,0.88,0
			c0.35-0.13-0.05-0.79,1.01-0.27l-0.54-1.62l1.9,2.32c0.17,0.1,1.28-0.07,1.45-0.14c0.34-0.16,0.08-0.68,0.2-0.79
			c0.18-0.17,0.89,0.09,1.05-0.05c0.08-0.07,0.27-1.79,0.62-2.09c0.1-0.08,1.77-0.4,1.83-0.34c0.18,1.79,0.12,2.66,1.54,0.98
			c0.14-0.17,0.04-0.59,0.12-0.66c0.22-0.21,1.21,0.07,1.33-0.04c0.11-0.11-0.11-2.22,1.22-2.71c0.68,1.55,0.59-0.08,0.73-0.22
			c0.18-0.19,1.13,0.1,1.03-1.14c0.63-0.13,0.8,0.63,1.35,0.81c0.44-1.5-1.58-1.23-1.35-2.71l1.63-0.28l-0.54-1.08
			c2.02-1.11,3.71-1.26,3.19,1.69c-0.07,0.38-1.72,2.81-1.88,2.87c-0.18,0.06-0.58-0.31-0.74-0.21c-0.54,0.34-1.06,3.06-0.84,3.78
			l-1.08-0.81c-0.37,0.89,0.83,1.05,0.81,1.22c-0.01,0.13-1.26,0.46-0.81,1.49c0.78,0.23,1.8-1.31,2.42-0.79
			c0.11,0.09-0.21,1.08,0.42,0.79c0.75-0.35,0.36-1.47,1.22-1.35c0.01-0.17,0.01-0.37,0-0.54c-0.01-0.15-0.48-0.66-0.27-1.08
			c0.99,1.59,1.02,0.03,2.03,0.01c0.09,0,1.71,0.46,1.76,0.53c0.63,0.74-0.73,0.81-0.83,0.98c-0.17,0.31-0.39,1.62-0.13,1.99
			c0.5-0.44,0.79-1.73,1.08-0.54c0.16-0.23,0.58-0.47,0.68-0.68c0.25-0.58-0.86-0.18-0.54-0.94c1.09,0.45,2.7-1.35,3.13-2.17
			c0.2-0.39-1.21-1.98-1.6-2.35c-0.23-0.22-1.27-0.23-1.13-1.17c0.64,1.1,2.17,0.15,2.04,1.08c0.55,0.09,0.04-0.76,0.41-0.83
			c0.95-0.18,2.17,0.4,3.1,0.57l-0.81,4.05c0.5,0.57,2.01-2.57,2.19-2.69c0.09-0.06,0.6,0.35,0.76,0.24
			c0.08-0.05,0.63-1.32,0.57-1.62l0.54,1.08c3.95-1.07,2.44,0.46,3.04,2.78c0.34,1.29,2.12,4.35,2.65,6.02
			c1.92,5.99,2.07,11.88,2.99,17.88c0.16,1.05,1.17,2.7,1.25,3.85c0.14,1.98-1.45,3.99-0.99,5.88c0.08,0.33,0.51,0.16,0.53,1.81
			c0,0.27-0.02,0.54,0,0.81c0,0.03-0.22,0.12-0.17,0.53c0.03,0.25,0.86,3.15,0.99,3.26c0.46,0.38,1.56-0.82,2.16-0.26
			c0.21-1.2,0.03-6.23,0.51-6.89c0.41-0.56,1.94-0.24,1.39,0.93c1.09-0.7,1.11,0.57,1.41,0.75c1.03,0.61,1.75-1.18,1.84-2.01
			c0.07-0.67-0.24-1.07-0.24-1.35c0-0.19,0.9,0.28-0.02-1.2c0.06-0.07,0.08-0.37,0.27-0.54c1.35-1.24,0.68-0.92,1.37-2.5
			c0.1-0.23,0.45-0.26,0.52-0.4c0.37-0.74-0.02-1.97,1.09-1.98c0.04,0.78,0.24,1.48,0.27,2.17c0.45,0.22,0.92,0.41,1.34,0.7
			c0.26,0.18,2.01,1.95,2.19,1.74c0.8-1.91-3.64-3.98-3.27-5.51c0.05-0.21,1.25-0.51,0.83-1.53c0.73,0.56,1.65,1.24,1.9,2.17
			l0.27-0.81c1,1.38,0.8,0.64,1.84,0.35c0.6-0.17,1.47,0.11,1.68-0.62c-0.87,0.26-2.95-1.45-1.9-2.04c0.85,0.04,4.16,0.09,4.61-0.4
			c0.23-0.25-0.49-0.96-0.47-1.22c0.02-0.25,0.57-0.51,0.47-0.67c-0.06-0.1-1.87-0.76-1.63-1.63c0.46-0.01,0.92-0.07,1.36,0.13
			c0.7,0.34,0.71,1.82,1.62,1.76c-0.18-1.44-1.27-2.17-2.35-2.94c-0.19-0.14-2.06-0.78-1.71-1.38
			C130.91,71.27,131.22,71.36,131.41,71.07z"/>
		<path class="st2" d="M30.32,67.21c0.19-0.38-0.17-0.72-0.27-0.54C29.86,67.05,30.22,67.39,30.32,67.21z"/>
		<path class="st2" d="M128.99,87.14c-0.13,0.93-1.2,0.04-1.61-0.3c-0.27-0.22-0.27-1.01-0.81-0.62c-0.04,0.03-0.02,1.04-0.56,0.52
			c-0.06-0.06-0.18-1.32-0.53-1.71c-0.31-0.36-1.2-0.25-1.37-1c-1.12,3.67-0.84,5.88-1.43,9.55c-0.11,0.68-0.67,1.67-0.69,2.02
			c-0.02,0.34,0.41,0.57,0.42,0.98c0.02,0.44-0.35,1.08-0.22,1.67c0.05,0.25,0.51,0.08,0.74,0.23c0.15,0.1,0.07,0.45,0.09,0.46
			c0.56,1.42,0.08,1.66,1.36,1.36c0.23-0.05,0.56,0.04,0.81,0c-0.08-0.11,0.38-2.29,0.95-2.44l0.4,1.35
			c0.81-1.9,0.64-3.63,0.82-5.55c0.08-0.84,0.58-2.58,0.55-3.23c-0.01-0.16-0.49-0.13-0.54-0.34c-0.23-0.94,0.04-2.6,0.94-1.43
			c0.14,0.18,0.09,1.28,0.68,0.79c0.08-0.07,1-1.66,1.03-1.82c0.18-0.75,0.18-1.98-0.21-2.66l1.08,0.28
			C128.76,80.91,129.25,85.24,128.99,87.14z"/>
		<path class="st2" d="M72.33,62.87l-0.13-1.62C71.36,61.61,72.18,63.2,72.33,62.87z"/>
	</g>
	<g style="clip-path:url(#SVGID_00000182527153406601999080000010940336895705115544_);">
		<defs>
			<ellipse id="SVGID_00000029732148534323960510000017637153150424768698_" cx="80.01" cy="133.97" rx="68.59" ry="31.33"/>
		</defs>
		<clipPath id="SVGID_00000139982239124702970240000001688685275584829599_">
			<use xlink:href="#SVGID_00000029732148534323960510000017637153150424768698_"  style="overflow:visible;"/>
		</clipPath>
		<g style="clip-path:url(#SVGID_00000139982239124702970240000001688685275584829599_);">
			<circle class="st4" cx="80.01" cy="102.64" r="53.5"/>
			<circle class="st4" cx="80.01" cy="102.64" r="27"/>
			<g>
				<path class="st2" d="M80.01,97.64c-2.76,0-5,2.24-5,5c0,2.76,2.24,5,5,5c2.76,0,5-2.24,5-5C85.01,99.88,82.77,97.64,80.01,97.64
					L80.01,97.64z"/>
			</g>
		</g>
	</g>
</g>
</svg>
